<?xml version="1.0" standalone="no"?>
<!DOCTYPE svg PUBLIC "-//W3C//DTD SVG 1.1//EN"
"http://www.w3.org/Graphics/SVG/1.1/DTD/svg11.dtd">

<svg width="384" height="255" view_box="0 0 384 255"
xmlns="http://www.w3.org/2000/svg"
xmlns:link="http://www.w3.org/1999/xlink">\n\n<desc>Généré par Mocodo 2.3.7 le Fri, 03 Jun 2022 06:51:46</desc>

<rect id="frame" x="0" y="0" width="384" height="255" fill="#ffffff" stroke="none" stroke-width="0"/>

<!-- Association HAS CONSOLE -->
<line x1="189" y1="60" x2="61" y2="60" stroke="#878787" stroke-width="2"/>
<text x="118" y="77.0" fill="#b2182b" font-family="Verdana" font-size="12">0,N</text>
<line x1="61" y1="178" x2="61" y2="60" stroke="#878787" stroke-width="2"/>
<text x="66.0" y="102" fill="#b2182b" font-family="Verdana" font-size="12">0,N</text>
<g id="association-HAS CONSOLE">
	<path d="M 99 35 a 14 14 90 0 1 14 14 V 60 h -104 V 49 a 14 14 90 0 1 14 -14" fill="#bababa" stroke="#bababa" stroke-width="0"/>
	<path d="M 113 60.0 v 11 a 14 14 90 0 1 -14 14 H 23 a 14 14 90 0 1 -14 -14 V 60.0 H 104" fill="#e0e0e0" stroke="#e0e0e0" stroke-width="0"/>
	<rect x="9" y="35" width="104" height="50" fill="none" rx="14" stroke="#878787" stroke-width="2"/>
	<line x1="9" y1="60" x2="113" y2="60" stroke="#878787" stroke-width="1"/>
	<text x="16" y="52.7" fill="#000000" font-family="Verdana" font-size="12">HAS CONSOLE</text>
	<text x="16" y="77.8" fill="#000000" font-family="Verdana" font-size="12">wish</text>
</g>

<!-- Association HAS PLATFORM -->
<line x1="320" y1="178" x2="320" y2="60" stroke="#878787" stroke-width="2"/>
<text x="325.0" y="111" fill="#b2182b" font-family="Verdana" font-size="12">0,N</text>
<line x1="189" y1="60" x2="320" y2="60" stroke="#878787" stroke-width="2"/>
<text x="238" y="77.0" fill="#b2182b" font-family="Verdana" font-size="12">1,N</text>
<g id="association-HAS PLATFORM">
	<path d="M 361 35 a 14 14 90 0 1 14 14 V 60 h -110 V 49 a 14 14 90 0 1 14 -14" fill="#bababa" stroke="#bababa" stroke-width="0"/>
	<path d="M 375 60.0 v 11 a 14 14 90 0 1 -14 14 H 279 a 14 14 90 0 1 -14 -14 V 60.0 H 110" fill="#e0e0e0" stroke="#e0e0e0" stroke-width="0"/>
	<rect x="265" y="35" width="110" height="50" fill="none" rx="14" stroke="#878787" stroke-width="2"/>
	<line x1="265" y1="60" x2="375" y2="60" stroke="#878787" stroke-width="1"/>
	<text x="272" y="52.7" fill="#000000" font-family="Verdana" font-size="12">HAS PLATFORM</text>
</g>

<!-- Association HAS GAME -->
<line x1="320" y1="178" x2="189" y2="178" stroke="#878787" stroke-width="2"/>
<text x="254" y="195.0" fill="#b2182b" font-family="Verdana" font-size="12">0,N</text>
<line x1="61" y1="178" x2="189" y2="178" stroke="#878787" stroke-width="2"/>
<text x="101" y="195.0" fill="#b2182b" font-family="Verdana" font-size="12">0,N</text>
<g id="association-HAS GAME">
	<path d="M 215 153 a 14 14 90 0 1 14 14 V 178 h -80 V 167 a 14 14 90 0 1 14 -14" fill="#bababa" stroke="#bababa" stroke-width="0"/>
	<path d="M 229 178.0 v 11 a 14 14 90 0 1 -14 14 H 163 a 14 14 90 0 1 -14 -14 V 178.0 H 80" fill="#e0e0e0" stroke="#e0e0e0" stroke-width="0"/>
	<rect x="149" y="153" width="80" height="50" fill="none" rx="14" stroke="#878787" stroke-width="2"/>
	<line x1="149" y1="178" x2="229" y2="178" stroke="#878787" stroke-width="1"/>
	<text x="156" y="170.7" fill="#000000" font-family="Verdana" font-size="12">HAS GAME</text>
	<text x="156" y="195.8" fill="#000000" font-family="Verdana" font-size="12">wish</text>
</g>

<!-- Entity GAME -->
<g id="entity-GAME">
	<g id="frame-GAME">
		<rect x="281" y="119" width="78" height="25" fill="#f4a582" stroke="#f4a582" stroke-width="0"/>
		<rect x="281" y="144.0" width="78" height="93" fill="#fddbc7" stroke="#fddbc7" stroke-width="0"/>
		<rect x="281" y="119" width="78" height="118" fill="none" stroke="#d6604d" stroke-width="2"/>
		<line x1="281" y1="144" x2="359" y2="144" stroke="#d6604d" stroke-width="1"/>
	</g>
	<text x="302" y="136.7" fill="#000000" font-family="Verdana" font-size="12">GAME</text>
	<text x="286" y="161.7" fill="#000000" font-family="Verdana" font-size="12">code game</text>
	<line x1="286" y1="164" x2="353" y2="164" stroke="#000000" stroke-width="1"/>
	<text x="286" y="178.8" fill="#000000" font-family="Verdana" font-size="12">name</text>
	<text x="286" y="195.8" fill="#000000" font-family="Verdana" font-size="12">condition</text>
	<text x="286" y="212.8" fill="#000000" font-family="Verdana" font-size="12">photo</text>
	<text x="286" y="229.8" fill="#000000" font-family="Verdana" font-size="12">platform</text>
</g>

<!-- Entity CONSOLE -->
<g id="entity-CONSOLE">
	<g id="frame-CONSOLE">
		<rect x="145" y="9" width="88" height="25" fill="#f4a582" stroke="#f4a582" stroke-width="0"/>
		<rect x="145" y="34.0" width="88" height="77" fill="#fddbc7" stroke="#fddbc7" stroke-width="0"/>
		<rect x="145" y="9" width="88" height="102" fill="none" stroke="#d6604d" stroke-width="2"/>
		<line x1="145" y1="34" x2="233" y2="34" stroke="#d6604d" stroke-width="1"/>
	</g>
	<text x="159" y="26.7" fill="#000000" font-family="Verdana" font-size="12">CONSOLE</text>
	<text x="150" y="51.7" fill="#000000" font-family="Verdana" font-size="12">code console</text>
	<line x1="150" y1="54" x2="228" y2="54" stroke="#000000" stroke-width="1"/>
	<text x="150" y="68.8" fill="#000000" font-family="Verdana" font-size="12">name</text>
	<text x="150" y="85.8" fill="#000000" font-family="Verdana" font-size="12">condition</text>
	<text x="150" y="102.8" fill="#000000" font-family="Verdana" font-size="12">photo</text>
</g>

<!-- Entity USER -->
<g id="entity-USER">
	<g id="frame-USER">
		<rect x="26" y="110" width="70" height="25" fill="#f4a582" stroke="#f4a582" stroke-width="0"/>
		<rect x="26" y="135.0" width="70" height="111" fill="#fddbc7" stroke="#fddbc7" stroke-width="0"/>
		<rect x="26" y="110" width="70" height="136" fill="none" stroke="#d6604d" stroke-width="2"/>
		<line x1="26" y1="135" x2="96" y2="135" stroke="#d6604d" stroke-width="1"/>
	</g>
	<text x="44" y="127.7" fill="#000000" font-family="Verdana" font-size="12">USER</text>
	<text x="31" y="152.7" fill="#000000" font-family="Verdana" font-size="12">code user</text>
	<line x1="31" y1="155" x2="91" y2="155" stroke="#000000" stroke-width="1"/>
	<text x="31" y="169.7" fill="#000000" font-family="Verdana" font-size="12">firstname</text>
	<text x="31" y="186.8" fill="#000000" font-family="Verdana" font-size="12">lastname</text>
	<text x="31" y="203.8" fill="#000000" font-family="Verdana" font-size="12">mail</text>
	<text x="31" y="220.8" fill="#000000" font-family="Verdana" font-size="12">picture</text>
</g>
</svg>