<svg height="512" viewBox="0 0 64 64" width="512" xmlns="http://www.w3.org/2000/svg"><g id="Layer_35" data-name="Layer 35"><path fill="#273036" d="m21.04 29.39h6.25v2.88h-6.25z"/><path fill="#273036" d="m21.04 25.01h6.25v2.88h-6.25z"/><path fill="#273036" d="m21.04 16.25h6.25v2.88h-6.25z"/><path fill="#273036" d="m21.04 20.63h6.25v2.88h-6.25z"/><path fill="#273036" d="m21.04 33.76h6.25v2.88h-6.25z"/><path fill="#273036" d="m28.8 46.25h8.57v3.5h-8.57z"/><path fill="#273036" d="m38.87 21.25h8.01v11h-8.01z"/><path fill="#273036" d="m32 3.25a28.75 28.75 0 1 0 28.75 28.75 28.79 28.79 0 0 0 -28.75-28.75zm16.37 42.25a.75.75 0 0 1 -.75.75h-4.25v4.25a.75.75 0 0 1 -.75.75h-21.24a.75.75 0 0 1 -.75-.75v-4.25h-4.25a.75.75 0 0 1 -.75-.75v-30a.75.75 0 0 1 .75-.75h31.24a.75.75 0 0 1 .75.75z"/><path fill="#273036" d="m28.8 19.88v17.51a.75.75 0 0 1 -.75.75h-7.76a.75.75 0 0 1 -.75-.75v-21.14h-2.41v28.5h4.25a.75.75 0 0 1 .75.75v4.25h5.17v-4.25a.74.74 0 0 1 .75-.75h10.07a.75.75 0 0 1 .75.75v4.25h3v-4.25a.75.75 0 0 1 .75-.75h4.25v-11h-8.75a.75.75 0 0 1 -.75-.75v-12.5a.75.75 0 0 1 .75-.75h8.75v-3.5h-18.07z"/></g></svg>