<svg id="Capa_1" enable-background="new 0 0 512 512" height="512" viewBox="0 0 512 512" width="512" xmlns="http://www.w3.org/2000/svg"><g><path d="m108.64 283.961c11.521 0 22.513-4.33 30.958-12.197l46.726-43.612c6.173 5.564 14.34 8.958 23.286 8.958 16.624 0 30.556-11.714 33.996-27.318h24.788c3.441 15.605 17.373 27.318 33.997 27.318 8.946 0 17.113-3.394 23.286-8.958l46.73 43.617c8.44 7.862 19.433 12.192 30.953 12.192 25.018 0 45.37-20.353 45.37-45.37l-.001-113.109c.025-11.566-1.16-23.08-3.53-33.695-.902-4.042-4.912-6.59-8.953-5.686-4.043.902-6.589 4.911-5.686 8.954 7.223 32.355 1.659 71.704-12.668 89.582-5.476 6.833-11.655 10.155-18.893 10.155h-62.614c-3.441-15.604-17.372-27.316-33.996-27.316s-30.556 11.713-33.997 27.316h-24.788c-3.441-15.604-17.372-27.316-33.996-27.316-16.623 0-30.555 11.712-33.996 27.316h-62.612c-17.256 0-34.725-23.923-34.725-69.645s17.469-69.646 34.725-69.646h66.62c1.65 0 3.236.692 4.352 1.9l13.299 14.39c5.908 6.393 14.283 10.06 22.979 10.06h71.5c8.695 0 17.07-3.667 22.978-10.06l13.301-14.391c1.114-1.207 2.7-1.899 4.351-1.899h66.62c7.31 0 13.54 3.384 19.049 10.344 2.57 3.248 7.284 3.797 10.535 1.227 3.248-2.57 3.797-7.288 1.227-10.536-8.302-10.49-18.957-16.035-30.811-16.035h-54.779c-23.493-18.559-54.699-28.75-88.221-28.75-33.521 0-64.728 10.191-88.22 28.75h-54.78c-15.884 0-29.525 10.06-38.413 28.327-7.295 14.993-11.312 34.994-11.312 56.318 0 .08.001.16.001.24-.001.042-.006.083-.006.125v113.08c0 25.017 20.353 45.37 45.37 45.37zm213.086-240.535c-1.734 1.024-3.328 2.294-4.714 3.795l-13.3 14.39c-3.078 3.331-7.438 5.24-11.962 5.24h-71.5c-4.525 0-8.885-1.91-11.962-5.24l-13.298-14.389c-1.387-1.502-2.982-2.772-4.716-3.796 18.841-10.719 41.93-16.675 65.726-16.675s46.885 5.956 65.726 16.675zm107.872 150.592c1.495-1.865 2.864-3.832 4.133-5.864v50.438c0 16.746-13.624 30.37-30.37 30.37-7.713 0-15.074-2.901-20.724-8.163l-48.171-44.961c.819-1.932 1.46-3.955 1.921-6.046h62.613c11.748 0 22.328-5.455 30.598-15.774zm-127.207-11.542c10.928 0 19.818 8.89 19.818 19.816 0 10.928-8.891 19.818-19.818 19.818-10.929 0-19.819-8.891-19.819-19.818-.001-10.927 8.89-19.816 19.819-19.816zm-92.782 0c10.928 0 19.819 8.89 19.819 19.816 0 10.928-8.891 19.818-19.819 19.818s-19.818-8.891-19.818-19.818 8.891-19.816 19.818-19.816zm-96.609 27.316h62.614c.461 2.09 1.102 4.114 1.92 6.045l-48.166 44.956c-5.654 5.267-13.015 8.168-20.728 8.168-16.746 0-30.37-13.624-30.37-30.37v-50.579c8.098 13.153 19.585 21.78 34.73 21.78z"/><path d="m138.255 156.895c4.142 0 7.5-3.358 7.5-7.5v-16.75h16.75c4.142 0 7.5-3.358 7.5-7.5s-3.358-7.5-7.5-7.5h-16.75v-16.75c0-4.142-3.358-7.5-7.5-7.5s-7.5 3.358-7.5 7.5v16.75h-16.75c-4.142 0-7.5 3.358-7.5 7.5s3.358 7.5 7.5 7.5h16.75v16.75c0 4.142 3.358 7.5 7.5 7.5z"/><path d="m258.153 423.014h159.65c4.143 0 7.5-3.358 7.5-7.5s-3.357-7.5-7.5-7.5h-159.65c-4.142 0-7.5 3.358-7.5 7.5s3.358 7.5 7.5 7.5z"/><path d="m499.5 380.164c6.893 0 12.5-5.607 12.5-12.5v-24.385c0-6.893-5.607-12.5-12.5-12.5h-487c-6.893 0-12.5 5.607-12.5 12.5v144.469c0 6.893 5.607 12.5 12.5 12.5h71.333c4.142 0 7.5-3.358 7.5-7.5s-3.358-7.5-7.5-7.5h-68.833v-139.469h179.14v92.584c0 15.164 12.336 27.5 27.5 27.5h275.36v19.385h-378.167c-4.142 0-7.5 3.358-7.5 7.5s3.358 7.5 7.5 7.5h380.667c6.893 0 12.5-5.607 12.5-12.5v-24.385c0-6.893-5.607-12.5-12.5-12.5h-17.68v-70.7h17.68zm-2.5-15h-22.602c-.026 0-.051-.004-.077-.004s-.051.004-.077.004h-265.104v-19.385h287.86zm-30.18 85.7h-245.18c-6.893 0-12.5-5.607-12.5-12.5v-58.2h257.68z"/><path d="m35.17 389.977c0 14.172 11.53 25.702 25.702 25.702s25.702-11.53 25.702-25.702-11.53-25.702-25.702-25.702-25.702 11.53-25.702 25.702zm36.403 0c0 5.901-4.801 10.702-10.702 10.702s-10.702-4.801-10.702-10.702 4.801-10.702 10.702-10.702 10.702 4.801 10.702 10.702z"/><path d="m153.968 389.977c0-14.172-11.53-25.702-25.702-25.702s-25.702 11.53-25.702 25.702 11.53 25.702 25.702 25.702 25.702-11.53 25.702-25.702zm-36.404 0c0-5.901 4.801-10.702 10.702-10.702s10.702 4.801 10.702 10.702-4.801 10.702-10.702 10.702-10.702-4.801-10.702-10.702z"/><path d="m390.519 117.645h-16.75v-16.75c0-4.142-3.357-7.5-7.5-7.5s-7.5 3.358-7.5 7.5v16.75h-16.751c-4.143 0-7.5 3.358-7.5 7.5s3.357 7.5 7.5 7.5h16.751v16.75c0 4.142 3.357 7.5 7.5 7.5s7.5-3.358 7.5-7.5v-16.75h16.75c4.143 0 7.5-3.358 7.5-7.5s-3.358-7.5-7.5-7.5z"/></g></svg>