<svg id="Layer_1" enable-background="new 0 0 512 512" height="512" viewBox="0 0 512 512" width="512" xmlns="http://www.w3.org/2000/svg"><path fill="#273036" d="m381.486 224.707c-.445 24.667-17.099 53.629-48.159 83.758-28.247 27.399-60.287 48.251-77.327 58.485-17.038-10.233-49.074-31.082-77.321-58.48-31.06-30.126-47.715-59.087-48.165-83.753-.485-26.565 12.285-47.91 34.161-57.098 7.198-3.023 14.848-4.497 22.685-4.497 20.327 0 41.908 9.914 60.085 28.396 2.256 2.294 5.338 3.586 8.556 3.586 3.217 0 6.3-1.292 8.556-3.586 25.183-25.606 56.897-34.766 82.767-23.901 21.871 9.185 34.643 30.527 34.162 57.09zm130.514 31.293c0 141.159-114.841 256-256 256s-256-114.841-256-256 114.841-256 256-256 256 114.841 256 256zm-155.386-110.512c-32.084-13.473-69.773-5.297-100.614 21.196-30.844-26.496-68.537-34.67-100.619-21.193-30.801 12.937-49.524 43.462-48.863 79.664 1.463 80.175 119.782 152.444 143.486 166.117 1.855 1.07 3.926 1.605 5.996 1.605s4.141-.535 5.996-1.605c23.706-13.675 142.038-85.953 143.486-166.131.656-36.199-18.07-66.72-48.868-79.653z"/></svg>